<svg width="194" height="41" viewBox="0 0 194 41" fill="none" xmlns="http://www.w3.org/2000/svg">
<g clip-path="url(#clip0)">
<path d="M52.9331 3.77344H48.4004L53.0957 21.7724H58.0472L58.12 21.4644C59.7509 14.5668 60.6295 10.8326 60.7539 10.2718C60.7774 10.1659 60.8022 10.051 60.8283 9.92718C60.9385 10.4679 61.0577 10.9984 61.1858 11.5189L61.1863 11.5206L63.6192 21.7724H68.5702L73.2784 3.77344H68.743L66.5734 13.6548L66.0462 15.915C65.8119 14.615 65.6331 13.7192 65.5103 13.2334L63.2371 3.77344H58.527L58.4539 4.08105C57.0289 10.0837 56.2057 13.6075 55.9857 14.643C55.8911 15.0894 55.7953 15.5454 55.6983 16.0109L55.5265 15.1992L52.9331 3.77344Z" fill="#3A4953"/>
<path d="M88.7615 3.77344H74.9648V21.7724H88.7615V18.1894H79.411V14.4615H88.7056V10.8785H79.411V7.35643H88.7615V3.77344Z" fill="#3A4953"/>
<path d="M96.3095 3.77344H91.8633V21.7724H105.654V18.1894H96.3095V3.77344Z" fill="#3A4953"/>
<path d="M120.63 3.77344H104.924V7.35643H110.548V21.7724H114.994V7.35643H120.63V3.77344Z" fill="#3A4953"/>
<path fill-rule="evenodd" clip-rule="evenodd" d="M131.783 3.77344H122.682V21.7724H127.127V15.2426H130.781L134.706 21.5829L135.046 21.3724V21.7724H139.888L135.072 14.3837C136.083 14.0497 136.917 13.479 137.559 12.6677C138.311 11.7166 138.683 10.587 138.683 9.30001C138.683 7.54664 138.078 6.15412 136.837 5.18305C135.613 4.22497 133.91 3.77344 131.783 3.77344ZM127.127 11.6469V7.36917H131.399C132.43 7.36917 133.13 7.56978 133.565 7.9053C133.981 8.22562 134.213 8.71429 134.213 9.44648C134.213 10.1761 133.984 10.6952 133.561 11.0605C133.133 11.4297 132.468 11.6469 131.498 11.6469H127.127Z" fill="#3A4953"/>
<path fill-rule="evenodd" clip-rule="evenodd" d="M152.118 3.77344H147.259L140.609 21.7724H145.114L146.658 17.3782H152.729L154.275 21.7724H158.741L152.118 3.77344ZM149.7 8.2095L149.701 8.20715L150.097 9.44737L151.634 13.8684H147.754C148.937 10.4655 149.587 8.57518 149.7 8.2105L149.7 8.2095Z" fill="#3A4953"/>
<path fill-rule="evenodd" clip-rule="evenodd" d="M167.716 3.77344H161.014V21.7724H168.458C170.18 21.7724 171.724 21.4095 173.08 20.6743C174.44 19.9366 175.493 18.8675 176.233 17.4773C176.974 16.0872 177.338 14.4728 177.338 12.6455C177.338 9.83687 176.507 7.62402 174.796 6.06923C173.093 4.52138 170.715 3.77344 167.716 3.77344ZM165.459 18.1894V7.35643H167.643C169.375 7.35643 170.648 7.8226 171.525 8.69876C172.4 9.57301 172.866 10.8661 172.866 12.6455C172.866 14.4085 172.423 15.7546 171.58 16.7291C170.741 17.6967 169.613 18.1894 168.149 18.1894H165.459Z" fill="#3A4953"/>
<path d="M193.938 3.77344H180.18V21.7724H193.935V18.1894H184.625V14.4615H193.92V10.8785H184.625V7.35643H193.908L193.938 3.77344Z" fill="#3A4953"/>
<path d="M50.3835 36.5681C49.7833 36.409 49.2952 36.1919 48.918 35.919L49.5987 34.4038C49.9988 34.6546 50.424 34.8463 50.8738 34.9791C51.324 35.1119 51.7754 35.1783 52.2294 35.1783C52.6909 35.1783 53.0451 35.115 53.291 34.9907C53.537 34.8653 53.6602 34.6883 53.6602 34.4607C53.6602 34.2552 53.5487 34.0866 53.3257 33.9528C53.1027 33.82 52.6834 33.6894 52.0683 33.5597C51.291 33.408 50.687 33.2205 50.2565 32.996C49.8254 32.7726 49.524 32.5081 49.3506 32.2047C49.1778 31.9001 49.0914 31.5324 49.0914 31.0993C49.0914 30.6051 49.2333 30.1583 49.5182 29.76C49.8025 29.3607 50.2026 29.0498 50.718 28.8254C51.2333 28.602 51.8218 28.4893 52.4833 28.4893C53.0755 28.4893 53.6506 28.5714 54.2087 28.7348C54.7662 28.8981 55.2026 29.112 55.5178 29.3786L54.8488 30.8938C54.4871 30.6431 54.1062 30.4513 53.7066 30.3185C53.3065 30.1857 52.9064 30.1194 52.5063 30.1194C52.1141 30.1194 51.7988 30.1931 51.5604 30.3406C51.3219 30.4892 51.2029 30.6884 51.2029 30.9392C51.2029 31.0761 51.2451 31.1899 51.3294 31.2816C51.4142 31.3722 51.5721 31.4618 51.8026 31.5493C52.0336 31.6367 52.3798 31.7294 52.8413 31.8285C53.5871 31.9876 54.174 32.1794 54.6008 32.4038C55.0276 32.6283 55.3295 32.8896 55.5066 33.1899C55.6832 33.4902 55.7718 33.8485 55.7718 34.2668C55.7718 35.0571 55.4602 35.6777 54.8371 36.1298C54.214 36.5818 53.3375 36.8073 52.2064 36.8073C51.5908 36.8073 50.9837 36.7283 50.3835 36.5681Z" fill="#A3AFB9"/>
<path d="M60.9062 36.7053V28.5928H66.7678V30.2334H63.0178V31.7602H66.5256V33.4009H63.0178V35.0647H66.7678V36.7053H60.9062Z" fill="#A3AFB9"/>
<path d="M73.5705 36.2889C72.9362 35.9433 72.4475 35.4554 72.1056 34.8253C71.7631 34.1941 71.5918 33.4649 71.5918 32.6367C71.5918 31.8169 71.7631 31.093 72.1056 30.466C72.4475 29.8401 72.9362 29.3533 73.5705 29.0077C74.2054 28.6621 74.9496 28.4893 75.8032 28.4893C76.3415 28.4893 76.8627 28.5693 77.3669 28.7285C77.8705 28.8886 78.2765 29.1046 78.5843 29.3786L77.9265 30.8938C77.257 30.4155 76.565 30.1763 75.8496 30.1763C75.1881 30.1763 74.6802 30.3828 74.3265 30.7969C73.9728 31.211 73.7957 31.8243 73.7957 32.6367C73.7957 33.4575 73.9728 34.0771 74.3265 34.4944C74.6802 34.9127 75.1881 35.1214 75.8496 35.1214C76.565 35.1214 77.257 34.8822 77.9265 34.4038L78.5843 35.919C78.2765 36.1919 77.8705 36.409 77.3669 36.5681C76.8627 36.7283 76.3415 36.8073 75.8032 36.8073C74.9496 36.8073 74.2054 36.6345 73.5705 36.2889Z" fill="#A3AFB9"/>
<path d="M84.525 35.913C83.9094 35.3176 83.6016 34.442 83.6016 33.2871V28.5928H85.7131V33.3672C85.7131 33.952 85.846 34.3998 86.1111 34.7117C86.3768 35.0226 86.7556 35.1785 87.248 35.1785C87.7324 35.1785 88.1053 35.0205 88.3673 34.7054C88.6287 34.3903 88.7594 33.9446 88.7594 33.3672V28.5928H90.8939V33.2871C90.8939 34.4262 90.5802 35.2976 89.9534 35.9024C89.3265 36.5062 88.4249 36.8076 87.248 36.8076C86.0476 36.8076 85.1402 36.5094 84.525 35.913Z" fill="#A3AFB9"/>
<path d="M103.379 36.7053H101.083L100.021 34.0047C99.8977 33.7012 99.6096 33.5495 99.1556 33.5495H98.3708V36.7053H96.2363V28.5928H100.056C101.048 28.5928 101.794 28.8035 102.294 29.225C102.794 29.6465 103.044 30.2482 103.044 31.0311C103.044 31.578 102.896 32.0511 102.6 32.4494C102.304 32.8487 101.886 33.1311 101.348 33.2987C101.579 33.344 101.786 33.4504 101.971 33.6169C102.155 33.7844 102.302 34.0089 102.409 34.2892L103.379 36.7053ZM100.713 31.7434C100.921 31.6022 101.025 31.3841 101.025 31.088C101.025 30.7761 100.923 30.5527 100.719 30.4157C100.515 30.2787 100.178 30.2102 99.7094 30.2102H98.3479V31.9541H99.7094C100.171 31.9541 100.505 31.8835 100.713 31.7434Z" fill="#A3AFB9"/>
<path d="M108.398 36.7053V28.5928H114.261V30.2334H110.509V31.7602H114.018V33.4009H110.509V35.0647H114.261V36.7053H108.398Z" fill="#A3AFB9"/>
<path d="M133.205 33.2239C133.466 33.5705 133.598 33.9899 133.598 34.4831C133.598 34.9319 133.478 35.3229 133.239 35.6569C133.001 35.9909 132.661 36.2491 132.218 36.4314C131.776 36.6137 131.254 36.7053 130.655 36.7053H126.559V28.5928H130.551C131.412 28.5928 132.097 28.7824 132.605 29.1618C133.112 29.5422 133.366 30.0543 133.366 30.7002C133.366 31.1185 133.255 31.4863 133.032 31.8056C132.808 32.1248 132.493 32.3567 132.086 32.501C132.57 32.6369 132.943 32.8782 133.205 33.2239ZM128.67 31.7718H130.182C130.581 31.7718 130.874 31.7107 131.058 31.5895C131.244 31.4673 131.336 31.2745 131.336 31.0079C131.336 30.735 131.242 30.5337 131.053 30.4041C130.864 30.2745 130.574 30.2102 130.182 30.2102H128.67V31.7718ZM131.295 34.894C131.475 34.7644 131.566 34.5484 131.566 34.2439C131.566 33.933 131.477 33.7128 131.301 33.5832C131.124 33.4546 130.823 33.3893 130.401 33.3893H128.67V35.0868H130.401C130.816 35.0868 131.115 35.0226 131.295 34.894Z" fill="#A3AFB9"/>
<path d="M145.724 36.7053H143.428L142.367 34.0047C142.244 33.7012 141.955 33.5495 141.501 33.5495H140.717V36.7053H138.582V28.5928H142.401C143.393 28.5928 144.14 28.8035 144.639 29.225C145.14 29.6465 145.389 30.2482 145.389 31.0311C145.389 31.578 145.241 32.0511 144.946 32.4494C144.649 32.8487 144.232 33.1311 143.694 33.2987C143.924 33.344 144.133 33.4504 144.317 33.6169C144.502 33.7844 144.647 34.0089 144.755 34.2892L145.724 36.7053ZM143.059 31.7434C143.267 31.6022 143.371 31.3841 143.371 31.088C143.371 30.7761 143.268 30.5527 143.064 30.4157C142.861 30.2787 142.525 30.2102 142.055 30.2102H140.694V31.9541H142.055C142.517 31.9541 142.851 31.8835 143.059 31.7434Z" fill="#A3AFB9"/>
<path d="M152.404 36.3005C151.781 35.9622 151.303 35.4786 150.968 34.8474C150.633 34.2173 150.467 33.4807 150.467 32.6367C150.467 31.7937 150.635 31.0614 150.974 30.4376C151.313 29.8148 151.791 29.3343 152.411 28.9961C153.03 28.6589 153.758 28.4893 154.597 28.4893C155.436 28.4893 156.165 28.6589 156.783 28.9961C157.402 29.3343 157.878 29.8148 158.209 30.4376C158.54 31.0614 158.705 31.7937 158.705 32.6367C158.705 33.4807 158.54 34.2173 158.209 34.8474C157.878 35.4786 157.402 35.9622 156.783 36.3005C156.165 36.6387 155.436 36.8073 154.597 36.8073C153.758 36.8073 153.028 36.6387 152.404 36.3005ZM156.045 34.5292C156.395 34.0961 156.57 33.4649 156.57 32.6367C156.57 31.8169 156.395 31.192 156.045 30.7632C155.695 30.3333 155.213 30.1194 154.597 30.1194C153.981 30.1194 153.501 30.3322 153.155 30.7569C152.809 31.1826 152.636 31.8095 152.636 32.6367C152.636 33.4733 152.809 34.1056 153.155 34.5344C153.501 34.9633 153.981 35.1783 154.597 35.1783C155.213 35.1783 155.695 34.9612 156.045 34.5292Z" fill="#A3AFB9"/>
<path d="M171.928 36.7053H169.354L166.066 33.0247V36.7053H163.896V28.5928H166.066V32.0795L169.262 28.5928H171.801L168.166 32.4441L171.928 36.7053Z" fill="#A3AFB9"/>
<path d="M175.965 36.7053V28.5928H181.827V30.2334H178.076V31.7602H181.584V33.4009H178.076V35.0647H181.827V36.7053H175.965Z" fill="#A3AFB9"/>
<path d="M194 36.7053H191.704L190.642 34.0047C190.519 33.7012 190.23 33.5495 189.777 33.5495H188.992V36.7053H186.857V28.5928H190.676C191.668 28.5928 192.415 28.8035 192.915 29.225C193.415 29.6465 193.665 30.2482 193.665 31.0311C193.665 31.578 193.517 32.0511 193.221 32.4494C192.924 32.8487 192.507 33.1311 191.969 33.2987C192.2 33.344 192.408 33.4504 192.592 33.6169C192.777 33.7844 192.922 34.0089 193.03 34.2892L194 36.7053ZM191.335 31.7434C191.543 31.6022 191.646 31.3841 191.646 31.088C191.646 30.7761 191.544 30.5527 191.34 30.4157C191.136 30.2787 190.8 30.2102 190.33 30.2102H188.969V31.9541H190.33C190.792 31.9541 191.126 31.8835 191.335 31.7434Z" fill="#A3AFB9"/>
<g clip-path="url(#clip1)">
<path d="M0 9.74713C0 4.64008 4.16751 0.5 9.30841 0.5H31.6916C36.8325 0.5 41 4.64008 41 9.74713V31.2529C41 36.3599 36.8325 40.5 31.6916 40.5H9.30841C4.16752 40.5 0 36.3599 0 31.2529V9.74713Z" fill="#487EAC"/>
<path d="M13.8429 25.871C13.8174 23.6871 14.1041 23.6621 15.5602 23.5282L26.1084 23.5226C27.4598 23.4613 28.1191 22.881 28.4355 22.4046C28.7489 21.9339 29.0224 21.1208 28.5413 19.9166L27.3034 16.8768L27.0536 16.3071C26.1499 14.262 25.297 12.3281 25.2278 10.3093C25.2037 8.846 25.8444 7.43966 26.9071 6.60579C26.906 6.72472 26.8943 6.87996 26.8847 6.99458C26.8581 7.33211 26.8418 7.66469 26.8741 8.00929C27.0852 9.80303 27.5546 11.4949 28.2752 13.0551C29.1011 14.7854 30.2127 16.2965 31.2895 17.759C32.2706 19.0921 33.1973 20.351 33.8934 21.7331C34.1124 22.1675 34.3266 22.6047 34.5403 23.0419C35.2867 24.5665 36.0581 26.1395 37.0494 27.6006C38.0655 29.1408 39.4379 30.4496 41.0008 31.4985V27.6227C40.4896 27.1071 40.0095 26.5638 39.6122 25.96C38.729 24.6576 38.0368 23.2449 37.3027 21.7488C37.0835 21.3002 36.8635 20.8515 36.6407 20.4101C35.8332 18.8043 34.7862 17.3838 33.7753 16.0095C32.7368 14.5974 31.7557 13.2644 31.0582 11.8054C30.4756 10.5436 30.0917 9.15145 29.92 7.701C29.9062 7.54933 29.9264 7.3884 29.9395 7.22318C29.9928 6.53601 30.0808 5.39888 29.1643 4.49668C28.2011 3.40717 26.2936 3.28117 25.1597 4.14916C23.2739 5.5313 22.1265 7.90961 22.1659 10.3834C22.2539 12.9974 23.2643 15.2831 24.2418 17.4941L25.4949 20.5297L15.4229 20.5397C11.5221 20.8815 10.7462 22.9308 10.7824 25.9849C10.8814 27.4867 11.519 32.4256 12.3283 37.052C12.56 38.3722 12.7754 39.5023 12.9814 40.4998H16.1112C15.0893 35.7304 14.0079 28.3618 13.8429 25.871Z" fill="white"/>
</g>
</g>
<defs>
<clipPath id="clip0">
<rect width="194" height="40" fill="white" transform="translate(0 0.5)"/>
</clipPath>
<clipPath id="clip1">
<rect width="41" height="40" fill="white" transform="translate(0 0.5)"/>
</clipPath>
</defs>
</svg>
